# xmcd
#
# Track frame offsets: 
#        150
#        31852
#        75252
#        98812
#        131225
#        162407
#        188710
#        213355
#        237975
#
# Disc length: 3369 seconds
#
# Revision: 2
# Processed by: cddbd v1.4PL0 Copyright (c) Steve Scherf et al.
# Submitted via: ExactAudioCopy v0.90b4
#
DISCID=6d0d2709
DTITLE=Fred Wesley and The Horny Horns - Say Blow By Blow Backwards
DYEAR=1994
DGENRE=Funk
TTITLE0=We Came To Funk Ya
TTITLE1=Half A Man
TTITLE2=Say Blow By Blow Backwards
TTITLE3=Mr. Melody Man
TTITLE4=Just Like You
TTITLE5=Circular Motion
TTITLE6=Half A Man (Remix)
TTITLE7=Say Blow By Blow Backwards (Remix)
TTITLE8=Interview
EXTD=
EXTT0=
EXTT1=
EXTT2=
EXTT3=
EXTT4=
EXTT5=
EXTT6=
EXTT7=
EXTT8=
PLAYORDER=
